<?xml version="1.0" encoding="UTF-8" standalone="no"?>
<!-- Generator: Adobe Illustrator 17.1.0, SVG Export Plug-In . SVG Version: 6.00 Build 0)  -->

<svg
   version="1.1"
   id="Capa_1"
   x="0px"
   y="0px"
   viewBox="0 0 200.00001 200.00001"
   xml:space="preserve"
   sodipodi:docname="folder.svg"
   width="200"
   height="200"
   inkscape:version="1.1 (c4e8f9ed74, 2021-05-24)"
   xmlns:inkscape="http://www.inkscape.org/namespaces/inkscape"
   xmlns:sodipodi="http://sodipodi.sourceforge.net/DTD/sodipodi-0.dtd"
   xmlns="http://www.w3.org/2000/svg"
   xmlns:svg="http://www.w3.org/2000/svg"><defs
   id="defs37" /><sodipodi:namedview
   id="namedview35"
   pagecolor="#ffffff"
   bordercolor="#666666"
   borderopacity="1.0"
   inkscape:pageshadow="2"
   inkscape:pageopacity="0.0"
   inkscape:pagecheckerboard="0"
   showgrid="false"
   inkscape:zoom="1.91632"
   inkscape:cx="103.84487"
   inkscape:cy="110.88962"
   inkscape:window-width="1916"
   inkscape:window-height="1036"
   inkscape:window-x="1920"
   inkscape:window-y="40"
   inkscape:window-maximized="1"
   inkscape:current-layer="Capa_1" />
<path
   d="m 53.733901,84.397132 h 92.532219 c 1.05939,0 2.03638,0.439148 2.75195,1.235585 0.71557,0.796436 1.0594,1.828953 0.96724,2.905793 l -4.52914,52.98267 C 145.28647,143.50436 143.68827,145 141.73739,145 H 59.481961 c -1.90568,0 -3.500319,-1.4581 -3.710339,-3.39063 L 50.023551,88.626702 c -0.118301,-1.091313 0.21179,-2.142373 0.92914,-2.960518 0.71779,-0.818596 1.70541,-1.269052 2.78121,-1.269052 z m 91.312419,-6.783954 v -8.382704 c 0,-1.873728 -1.11834,-3.376148 -2.95402,-3.376148 H 105.16918 V 64.795578 C 105.16918,59.269368 101.54657,55 96.639912,55 H 63.482971 c -4.90666,0 -9.26789,4.269368 -9.26789,9.795578 v 11.284428 c 0,0.556737 0.30129,1.075935 0.56138,1.533173 z"
   id="path2"
   style="fill:#d8dee9;fill-opacity:1;stroke-width:0.447647" />
<g
   id="g4">
</g>
<g
   id="g6">
</g>
<g
   id="g8">
</g>
<g
   id="g10">
</g>
<g
   id="g12">
</g>
<g
   id="g14">
</g>
<g
   id="g16">
</g>
<g
   id="g18">
</g>
<g
   id="g20">
</g>
<g
   id="g22">
</g>
<g
   id="g24">
</g>
<g
   id="g26">
</g>
<g
   id="g28">
</g>
<g
   id="g30">
</g>
<g
   id="g32">
</g>
</svg>
