<?xml version="1.0" encoding="UTF-8" standalone="no"?>
<!-- Generator: Adobe Illustrator 18.0.0, SVG Export Plug-In . SVG Version: 6.00 Build 0)  -->

<svg
   version="1.1"
   id="Capa_1"
   x="0px"
   y="0px"
   viewBox="0 0 1024 1024"
   xml:space="preserve"
   sodipodi:docname="musical-note.svg"
   width="1024"
   height="1024"
   inkscape:version="1.1 (c4e8f9ed74, 2021-05-24)"
   xmlns:inkscape="http://www.inkscape.org/namespaces/inkscape"
   xmlns:sodipodi="http://sodipodi.sourceforge.net/DTD/sodipodi-0.dtd"
   xmlns="http://www.w3.org/2000/svg"
   xmlns:svg="http://www.w3.org/2000/svg"><defs
   id="defs37" /><sodipodi:namedview
   id="namedview35"
   pagecolor="#ffffff"
   bordercolor="#666666"
   borderopacity="1.0"
   inkscape:pageshadow="2"
   inkscape:pageopacity="0.0"
   inkscape:pagecheckerboard="0"
   showgrid="false"
   inkscape:zoom="0.42236328"
   inkscape:cx="385.9237"
   inkscape:cy="545.73873"
   inkscape:window-width="1916"
   inkscape:window-height="1036"
   inkscape:window-x="1920"
   inkscape:window-y="40"
   inkscape:window-maximized="1"
   inkscape:current-layer="Capa_1" />
<path
   d="M 581.328,331.914 C 563.043,317.805 538,298.477 538,288 c 0,-17.672 -14.328,-32 -32,-32 -17.672,0 -32,14.328 -32,32 V 581.58 C 463.977,578.031 453.238,576 442,576 c -53.02,0 -96,42.98 -96,96 0,53.02 42.98,96 96,96 53.02,0 96,-42.98 96,-96 V 379.293 c 1.414,1.094 2.82,2.203 4.23,3.293 36.105,27.852 59.77,48.078 59.77,74.305 0,40.766 -21.684,63.516 -22.305,64.164 -12.672,12.32 -12.961,32.578 -0.641,45.25 6.273,6.453 14.605,9.695 22.949,9.695 8.035,0 16.082,-3.008 22.301,-9.055 4.27,-4.148 41.695,-42.484 41.695,-110.055 C 666,397.25 619.051,361.023 581.328,331.914 Z"
   id="path2"
   style="fill:#2e3440;fill-opacity:1;stroke:#d8dee9;stroke-opacity:1;stroke-width:25;stroke-miterlimit:4;stroke-dasharray:none" />
<g
   id="g4">
</g>
<g
   id="g6">
</g>
<g
   id="g8">
</g>
<g
   id="g10">
</g>
<g
   id="g12">
</g>
<g
   id="g14">
</g>
<g
   id="g16">
</g>
<g
   id="g18">
</g>
<g
   id="g20">
</g>
<g
   id="g22">
</g>
<g
   id="g24">
</g>
<g
   id="g26">
</g>
<g
   id="g28">
</g>
<g
   id="g30">
</g>
<g
   id="g32">
</g>
</svg>
