<?xml version="1.0" encoding="UTF-8" standalone="no"?>
<!-- Generator: Adobe Illustrator 18.0.0, SVG Export Plug-In . SVG Version: 6.00 Build 0)  -->

<svg
   version="1.1"
   id="Capa_1"
   x="0px"
   y="0px"
   viewBox="0 0 199.99999 199.99999"
   xml:space="preserve"
   sodipodi:docname="web.svg"
   width="200"
   height="200"
   inkscape:version="1.1 (c4e8f9ed74, 2021-05-24)"
   xmlns:inkscape="http://www.inkscape.org/namespaces/inkscape"
   xmlns:sodipodi="http://sodipodi.sourceforge.net/DTD/sodipodi-0.dtd"
   xmlns="http://www.w3.org/2000/svg"
   xmlns:svg="http://www.w3.org/2000/svg"><defs
   id="defs37" /><sodipodi:namedview
   id="namedview35"
   pagecolor="#ffffff"
   bordercolor="#666666"
   borderopacity="1.0"
   inkscape:pageshadow="2"
   inkscape:pageopacity="0.0"
   inkscape:pagecheckerboard="0"
   showgrid="false"
   width="200px"
   inkscape:zoom="2.9226129"
   inkscape:cx="94.949283"
   inkscape:cy="118.55829"
   inkscape:window-width="1916"
   inkscape:window-height="1036"
   inkscape:window-x="1920"
   inkscape:window-y="40"
   inkscape:window-maximized="1"
   inkscape:current-layer="Capa_1" />
<path
   d="M 147.2171,116.44925 C 149.01757,111.29539 150,105.7607 150,100 c 0,-5.760703 -0.98243,-11.295394 -2.7829,-16.449255 -0.044,-0.154816 -0.096,-0.30581 -0.15912,-0.45107 C 140.11315,63.821674 121.64155,50 100,50 78.358451,50 59.886371,63.821674 52.94202,83.099675 52.87895,83.245413 52.826384,83.395929 52.782901,83.550745 50.982425,88.704606 50,94.239297 50,100 c 0,5.7607 0.982425,11.29539 2.782901,16.44925 0.04396,0.15482 0.09604,0.30581 0.159119,0.45107 C 59.886849,136.1788 78.358451,150 100,150 c 21.64155,0 40.11315,-13.82167 47.05798,-33.09967 0.0631,-0.14526 0.11516,-0.29578 0.15912,-0.45108 z M 100,142.83305 c -1.904166,0 -4.974245,-3.4461 -7.54021,-11.14488 -1.238544,-3.71512 -2.230048,-7.98595 -2.952532,-12.63188 h 20.985482 c -0.72248,4.64593 -1.71399,8.91628 -2.95205,12.63188 -2.56645,7.69878 -5.63652,11.14488 -7.54069,11.14488 z M 88.637602,111.88886 C 88.293084,108.06718 88.111029,104.08018 88.111029,100 c 0,-4.08018 0.182055,-8.067183 0.526573,-11.888857 h 22.724318 c 0.34452,3.821674 0.52657,7.808677 0.52657,11.888857 0,4.08018 -0.18205,8.06718 -0.52657,11.88886 z m -31.47058,-11.88838 c 0,-4.123664 0.587257,-8.112579 1.680062,-11.888859 h 22.601515 c -0.334961,3.900516 -0.505069,7.898031 -0.505069,11.888859 0,3.99082 0.16963,7.98834 0.505069,11.88886 H 58.847084 c -1.092805,-3.77676 -1.680062,-7.7652 -1.680062,-11.88886 z M 100,57.167431 c 1.90417,0 4.97472,3.446101 7.54069,11.144878 1.23806,3.715118 2.23005,7.985952 2.95205,12.631403 H 89.50678 C 90.229264,76.297783 91.220769,72.027427 92.459312,68.312309 95.025755,60.613532 98.095834,57.167431 100,57.167431 Z m 18.55092,30.94419 h 22.60152 c 1.0928,3.77628 1.68006,7.765195 1.68006,11.888859 0,4.12366 -0.58726,8.11257 -1.68006,11.88886 h -22.60152 c 0.33496,-3.90052 0.50507,-7.89804 0.50507,-11.88886 0,-3.990828 -0.17011,-7.988343 -0.50507,-11.888859 z m 19.80094,-7.167431 h -20.62329 c -1.27486,-8.790616 -3.4619,-16.677179 -6.53007,-22.287844 11.89566,3.224866 21.75097,11.458333 27.15336,22.287844 z M 88.801021,58.655868 C 85.732853,64.266533 83.54581,72.153096 82.270951,80.94419 H 61.647665 C 67.050526,70.114679 76.90536,61.881212 88.801021,58.655868 Z M 61.647665,119.05629 h 20.623286 c 1.274859,8.79061 3.461902,16.67718 6.53007,22.28832 C 76.90536,138.11927 67.050526,129.88628 61.647665,119.05629 Z m 49.550835,22.28832 c 3.06817,-5.61067 5.25521,-13.49723 6.53007,-22.28832 h 20.62329 c -5.40239,10.82999 -15.2577,19.06298 -27.15336,22.28832 z"
   id="path2"
   style="fill:#d8dee9;fill-opacity:1;stroke-width:0.477831" />
<g
   id="g4">
</g>
<g
   id="g6">
</g>
<g
   id="g8">
</g>
<g
   id="g10">
</g>
<g
   id="g12">
</g>
<g
   id="g14">
</g>
<g
   id="g16">
</g>
<g
   id="g18">
</g>
<g
   id="g20">
</g>
<g
   id="g22">
</g>
<g
   id="g24">
</g>
<g
   id="g26">
</g>
<g
   id="g28">
</g>
<g
   id="g30">
</g>
<g
   id="g32">
</g>
</svg>
