<?xml version="1.0" encoding="UTF-8" standalone="no"?>
<!-- Generator: Adobe Illustrator 19.0.0, SVG Export Plug-In . SVG Version: 6.00 Build 0)  -->

<svg
   version="1.1"
   id="Capa_1"
   x="0px"
   y="0px"
   viewBox="0 0 494.45 494.45"
   style="enable-background:new 0 0 494.45 494.45;"
   xml:space="preserve"
   sodipodi:docname="wifi-svgrepo-com.svg"
   inkscape:version="1.1 (c4e8f9ed74, 2021-05-24)"
   xmlns:inkscape="http://www.inkscape.org/namespaces/inkscape"
   xmlns:sodipodi="http://sodipodi.sourceforge.net/DTD/sodipodi-0.dtd"
   xmlns="http://www.w3.org/2000/svg"
   xmlns:svg="http://www.w3.org/2000/svg"><defs
   id="defs55" /><sodipodi:namedview
   id="namedview53"
   pagecolor="#ffffff"
   bordercolor="#666666"
   borderopacity="1.0"
   inkscape:pageshadow="2"
   inkscape:pageopacity="0.0"
   inkscape:pagecheckerboard="0"
   showgrid="false"
   inkscape:zoom="0.87470925"
   inkscape:cx="148.62081"
   inkscape:cy="321.82122"
   inkscape:window-width="1908"
   inkscape:window-height="1028"
   inkscape:window-x="1924"
   inkscape:window-y="44"
   inkscape:window-maximized="0"
   inkscape:current-layer="Capa_1" />
<g
   id="g20"
   transform="matrix(0.5,0,0,0.50000002,123.6125,123.6125)"
   style="fill:#d8dee9;fill-opacity:1">
	<g
   id="g18"
   style="fill:#d8dee9;fill-opacity:1">
		<g
   id="g4"
   style="fill:#d8dee9;fill-opacity:1">
			<path
   d="m 395.225,277.325 c -6.8,0 -13.5,-2.6 -18.7,-7.8 -71.4,-71.3 -187.4,-71.3 -258.8,0 -10.3,10.3 -27.1,10.3 -37.4,0 -10.3,-10.3 -10.3,-27.1 0,-37.4 92,-92 241.6,-92 333.6,0 10.3,10.3 10.3,27.1 0,37.4 -5.2,5.2 -12,7.8 -18.7,7.8 z"
   id="path2"
   style="fill:#d8dee9;fill-opacity:1" />
		</g>
		<g
   id="g8"
   style="fill:#d8dee9;fill-opacity:1">
			<path
   d="m 323.625,348.825 c -6.8,0 -13.5,-2.6 -18.7,-7.8 -15.4,-15.4 -36,-23.9 -57.8,-23.9 -21.8,0 -42.4,8.5 -57.8,23.9 -10.3,10.3 -27.1,10.3 -37.4,0 -10.3,-10.3 -10.3,-27.1 0,-37.4 25.4,-25.4 59.2,-39.4 95.2,-39.4 36,0 69.8,14 95.2,39.5 10.3,10.3 10.3,27.1 0,37.4 -5.1,5.1 -11.9,7.7 -18.7,7.7 z"
   id="path6"
   style="fill:#d8dee9;fill-opacity:1" />
		</g>
		<g
   id="g12"
   style="fill:#d8dee9;fill-opacity:1">
			<circle
   cx="247.125"
   cy="398.92499"
   r="35.299999"
   id="circle10"
   style="fill:#d8dee9;fill-opacity:1" />
		</g>
		<g
   id="g16"
   style="fill:#d8dee9;fill-opacity:1">
			<path
   d="m 467.925,204.625 c -6.8,0 -13.5,-2.6 -18.7,-7.8 -111.5,-111.4 -292.7,-111.4 -404.1,0 -10.3,10.3 -27.1,10.3 -37.4,0 -10.3,-10.3 -10.3,-27.1 0,-37.4 64,-64 149,-99.2 239.5,-99.2 90.5,0 175.5,35.2 239.5,99.2 10.3,10.3 10.3,27.1 0,37.4 -5.3,5.2 -12.1,7.8 -18.8,7.8 z"
   id="path14"
   style="fill:#d8dee9;fill-opacity:1" />
		</g>
	</g>
</g>
<g
   id="g22">
</g>
<g
   id="g24">
</g>
<g
   id="g26">
</g>
<g
   id="g28">
</g>
<g
   id="g30">
</g>
<g
   id="g32">
</g>
<g
   id="g34">
</g>
<g
   id="g36">
</g>
<g
   id="g38">
</g>
<g
   id="g40">
</g>
<g
   id="g42">
</g>
<g
   id="g44">
</g>
<g
   id="g46">
</g>
<g
   id="g48">
</g>
<g
   id="g50">
</g>
</svg>
